<?xml version="1.0" encoding="UTF-8"?>
<!DOCTYPE svg PUBLIC "-//W3C//DTD SVG 1.1//EN" "http://www.w3.org/Graphics/SVG/1.1/DTD/svg11.dtd">
<!-- Creator: CorelDRAW X7 -->
<svg xmlns="http://www.w3.org/2000/svg" xml:space="preserve" width="2.42219in" height="1.04796in" version="1.1" style="shape-rendering:geometricPrecision; text-rendering:geometricPrecision; image-rendering:optimizeQuality; fill-rule:evenodd; clip-rule:evenodd"
viewBox="0 0 2424 1049"
 xmlns:xlink="http://www.w3.org/1999/xlink">
 <defs>
  <style type="text/css">
   <![CDATA[
    .str1 {stroke:white;stroke-width:20.8436}
    .str0 {stroke:blue;stroke-width:3.00186}
    .fil3 {fill:none}
    .fil1 {fill:none;fill-rule:nonzero}
    .fil2 {fill:blue}
    .fil4 {fill:white}
    .fil0 {fill:blue;fill-rule:nonzero}
   ]]>
  </style>
   <clipPath id="id0" style="clip-rule:nonzero">
    <path d="M919 976l-12 0 0 -62 -20 0 0 -11 51 0 0 11 -19 0 0 62z"/>
   </clipPath>
    <clipPath id="id1">
     <path d="M919 976l-12 0 0 -62 -20 0 0 -11 51 0 0 11 -19 0 0 62z"/>
    </clipPath>
    <clipPath id="id2">
     <path d="M919 976l-12 0 0 -62 -20 0 0 -11 51 0 0 11 -19 0 0 62z"/>
    </clipPath>
   <clipPath id="id3" style="clip-rule:nonzero">
    <path d="M962 903l39 0 0 11 -28 0 0 19 18 0 0 11 -18 0 0 21 28 0 0 11 -39 0 0 -73z"/>
   </clipPath>
    <clipPath id="id4">
     <path d="M962 903l39 0 0 11 -28 0 0 19 18 0 0 11 -18 0 0 21 28 0 0 11 -39 0 0 -73z"/>
    </clipPath>
    <clipPath id="id5">
     <path d="M962 903l39 0 0 11 -28 0 0 19 18 0 0 11 -18 0 0 21 28 0 0 11 -39 0 0 -73z"/>
    </clipPath>
   <clipPath id="id6" style="clip-rule:nonzero">
    <path d="M1028 903l11 0 0 62 31 0 0 11 -42 0 0 -73z"/>
   </clipPath>
    <clipPath id="id7">
     <path d="M1028 903l11 0 0 62 31 0 0 11 -42 0 0 -73z"/>
    </clipPath>
    <clipPath id="id8">
     <path d="M1028 903l11 0 0 62 31 0 0 11 -42 0 0 -73z"/>
    </clipPath>
   <clipPath id="id9" style="clip-rule:nonzero">
    <path d="M1093 903l39 0 0 11 -28 0 0 19 17 0 0 11 -17 0 0 21 28 0 0 11 -39 0 0 -73z"/>
   </clipPath>
    <clipPath id="id10">
     <path d="M1093 903l39 0 0 11 -28 0 0 19 17 0 0 11 -17 0 0 21 28 0 0 11 -39 0 0 -73z"/>
    </clipPath>
    <clipPath id="id11">
     <path d="M1093 903l39 0 0 11 -28 0 0 19 17 0 0 11 -17 0 0 21 28 0 0 11 -39 0 0 -73z"/>
    </clipPath>
   <clipPath id="id12" style="clip-rule:nonzero">
    <path d="M1202 922c-2,-3 -5,-5 -7,-6 -2,-1 -5,-2 -8,-2 -6,0 -10,3 -13,7 -3,5 -5,11 -5,19 0,3 0,7 1,10 1,3 2,5 4,8 2,2 4,4 6,5 2,1 5,2 7,2 3,0 6,-1 8,-2 3,-1 5,-3 7,-5l9 7c-5,8 -13,12 -24,12 -4,0 -8,-1 -12,-3 -3,-1 -7,-4 -9,-7 -3,-4 -5,-8 -6,-12 -2,-5 -3,-10 -3,-15 0,-6 1,-11 2,-15 2,-5 4,-9 6,-12 3,-3 6,-6 10,-8 3,-2 7,-3 12,-3 11,0 19,5 25,13l-10 7z"/>
   </clipPath>
    <clipPath id="id13">
     <path d="M1202 922c-2,-3 -5,-5 -7,-6 -2,-1 -5,-2 -8,-2 -6,0 -10,3 -13,7 -3,5 -5,11 -5,19 0,3 0,7 1,10 1,3 2,5 4,8 2,2 4,4 6,5 2,1 5,2 7,2 3,0 6,-1 8,-2 3,-1 5,-3 7,-5l9 7c-5,8 -13,12 -24,12 -4,0 -8,-1 -12,-3 -3,-1 -7,-4 -9,-7 -3,-4 -5,-8 -6,-12 -2,-5 -3,-10 -3,-15 0,-6 1,-11 2,-15 2,-5 4,-9 6,-12 3,-3 6,-6 10,-8 3,-2 7,-3 12,-3 11,0 19,5 25,13l-10 7z"/>
    </clipPath>
    <clipPath id="id14">
     <path d="M1202 922c-2,-3 -5,-5 -7,-6 -2,-1 -5,-2 -8,-2 -6,0 -10,3 -13,7 -3,5 -5,11 -5,19 0,3 0,7 1,10 1,3 2,5 4,8 2,2 4,4 6,5 2,1 5,2 7,2 3,0 6,-1 8,-2 3,-1 5,-3 7,-5l9 7c-5,8 -13,12 -24,12 -4,0 -8,-1 -12,-3 -3,-1 -7,-4 -9,-7 -3,-4 -5,-8 -6,-12 -2,-5 -3,-10 -3,-15 0,-6 1,-11 2,-15 2,-5 4,-9 6,-12 3,-3 6,-6 10,-8 3,-2 7,-3 12,-3 11,0 19,5 25,13l-10 7z"/>
    </clipPath>
   <clipPath id="id15" style="clip-rule:nonzero">
    <path d="M1266 913c-6,0 -10,3 -14,7 -3,4 -5,11 -5,20 0,4 0,8 1,11 1,4 3,6 4,9 2,2 4,3 6,4 3,1 5,2 8,2 5,0 9,-2 13,-6 3,-5 5,-11 5,-20 0,-9 -1,-16 -5,-20 -3,-4 -8,-7 -13,-7zm0 64c-9,0 -16,-3 -21,-10 -6,-6 -9,-16 -9,-27 0,-12 3,-21 8,-28 6,-6 13,-10 22,-10 8,0 15,4 21,10 5,7 8,16 8,28 0,11 -3,20 -8,27 -6,7 -13,10 -21,10z"/>
   </clipPath>
    <clipPath id="id16">
     <path d="M1266 913c-6,0 -10,3 -14,7 -3,4 -5,11 -5,20 0,4 0,8 1,11 1,4 3,6 4,9 2,2 4,3 6,4 3,1 5,2 8,2 5,0 9,-2 13,-6 3,-5 5,-11 5,-20 0,-9 -1,-16 -5,-20 -3,-4 -8,-7 -13,-7zm0 64c-9,0 -16,-3 -21,-10 -6,-6 -9,-16 -9,-27 0,-12 3,-21 8,-28 6,-6 13,-10 22,-10 8,0 15,4 21,10 5,7 8,16 8,28 0,11 -3,20 -8,27 -6,7 -13,10 -21,10z"/>
    </clipPath>
    <clipPath id="id17">
     <path d="M1266 913c-6,0 -10,3 -14,7 -3,4 -5,11 -5,20 0,4 0,8 1,11 1,4 3,6 4,9 2,2 4,3 6,4 3,1 5,2 8,2 5,0 9,-2 13,-6 3,-5 5,-11 5,-20 0,-9 -1,-16 -5,-20 -3,-4 -8,-7 -13,-7zm0 64c-9,0 -16,-3 -21,-10 -6,-6 -9,-16 -9,-27 0,-12 3,-21 8,-28 6,-6 13,-10 22,-10 8,0 15,4 21,10 5,7 8,16 8,28 0,11 -3,20 -8,27 -6,7 -13,10 -21,10z"/>
    </clipPath>
   <clipPath id="id18" style="clip-rule:nonzero">
    <path d="M1371 923l-19 53 -20 -53 0 53 -11 0 0 -73 15 0 16 44 16 -44 14 0 0 73 -11 0 0 -53z"/>
   </clipPath>
    <clipPath id="id19">
     <path d="M1371 923l-19 53 -20 -53 0 53 -11 0 0 -73 15 0 16 44 16 -44 14 0 0 73 -11 0 0 -53z"/>
    </clipPath>
    <clipPath id="id20">
     <path d="M1371 923l-19 53 -20 -53 0 53 -11 0 0 -73 15 0 16 44 16 -44 14 0 0 73 -11 0 0 -53z"/>
    </clipPath>
   <clipPath id="id21" style="clip-rule:nonzero">
    <path d="M1459 923l-19 53 -20 -53 0 53 -11 0 0 -73 15 0 16 44 16 -44 14 0 0 73 -11 0 0 -53z"/>
   </clipPath>
    <clipPath id="id22">
     <path d="M1459 923l-19 53 -20 -53 0 53 -11 0 0 -73 15 0 16 44 16 -44 14 0 0 73 -11 0 0 -53z"/>
    </clipPath>
    <clipPath id="id23">
     <path d="M1459 923l-19 53 -20 -53 0 53 -11 0 0 -73 15 0 16 44 16 -44 14 0 0 73 -11 0 0 -53z"/>
    </clipPath>
   <clipPath id="id24" style="clip-rule:nonzero">
    <path d="M1522 977c-8,0 -14,-3 -18,-8 -5,-5 -7,-13 -7,-22l0 -44 11 0 0 46c0,6 1,11 4,13 2,2 6,4 11,4 4,0 7,-2 10,-4 2,-2 3,-7 3,-13l0 -46 11 0 0 43c0,10 -2,17 -6,23 -4,5 -11,8 -19,8z"/>
   </clipPath>
    <clipPath id="id25">
     <path d="M1522 977c-8,0 -14,-3 -18,-8 -5,-5 -7,-13 -7,-22l0 -44 11 0 0 46c0,6 1,11 4,13 2,2 6,4 11,4 4,0 7,-2 10,-4 2,-2 3,-7 3,-13l0 -46 11 0 0 43c0,10 -2,17 -6,23 -4,5 -11,8 -19,8z"/>
    </clipPath>
    <clipPath id="id26">
     <path d="M1522 977c-8,0 -14,-3 -18,-8 -5,-5 -7,-13 -7,-22l0 -44 11 0 0 46c0,6 1,11 4,13 2,2 6,4 11,4 4,0 7,-2 10,-4 2,-2 3,-7 3,-13l0 -46 11 0 0 43c0,10 -2,17 -6,23 -4,5 -11,8 -19,8z"/>
    </clipPath>
   <clipPath id="id27" style="clip-rule:nonzero">
    <path d="M1584 922l0 54 -11 0 0 -73 14 0 27 52 0 -52 11 0 0 73 -13 0 -28 -54z"/>
   </clipPath>
    <clipPath id="id28">
     <path d="M1584 922l0 54 -11 0 0 -73 14 0 27 52 0 -52 11 0 0 73 -13 0 -28 -54z"/>
    </clipPath>
    <clipPath id="id29">
     <path d="M1584 922l0 54 -11 0 0 -73 14 0 27 52 0 -52 11 0 0 73 -13 0 -28 -54z"/>
    </clipPath>
   <clipPath id="id30" style="clip-rule:nonzero">
    <path d="M1651 903l11 0 0 73 -11 0 0 -73z"/>
   </clipPath>
    <clipPath id="id31">
     <path d="M1651 903l11 0 0 73 -11 0 0 -73z"/>
    </clipPath>
    <clipPath id="id32">
     <path d="M1651 903l11 0 0 73 -11 0 0 -73z"/>
    </clipPath>
   <clipPath id="id33" style="clip-rule:nonzero">
    <path d="M1733 922c-2,-3 -4,-5 -7,-6 -2,-1 -5,-2 -8,-2 -5,0 -10,3 -13,7 -3,5 -5,11 -5,19 0,3 1,7 1,10 1,3 3,5 4,8 2,2 4,4 6,5 3,1 5,2 8,2 2,0 5,-1 7,-2 3,-1 5,-3 7,-5l9 7c-5,8 -13,12 -24,12 -4,0 -8,-1 -12,-3 -3,-1 -6,-4 -9,-7 -3,-4 -5,-8 -6,-12 -2,-5 -2,-10 -2,-15 0,-6 0,-11 2,-15 1,-5 3,-9 6,-12 2,-3 5,-6 9,-8 4,-2 8,-3 12,-3 11,0 20,5 25,13l-10 7z"/>
   </clipPath>
    <clipPath id="id34">
     <path d="M1733 922c-2,-3 -4,-5 -7,-6 -2,-1 -5,-2 -8,-2 -5,0 -10,3 -13,7 -3,5 -5,11 -5,19 0,3 1,7 1,10 1,3 3,5 4,8 2,2 4,4 6,5 3,1 5,2 8,2 2,0 5,-1 7,-2 3,-1 5,-3 7,-5l9 7c-5,8 -13,12 -24,12 -4,0 -8,-1 -12,-3 -3,-1 -6,-4 -9,-7 -3,-4 -5,-8 -6,-12 -2,-5 -2,-10 -2,-15 0,-6 0,-11 2,-15 1,-5 3,-9 6,-12 2,-3 5,-6 9,-8 4,-2 8,-3 12,-3 11,0 20,5 25,13l-10 7z"/>
    </clipPath>
    <clipPath id="id35">
     <path d="M1733 922c-2,-3 -4,-5 -7,-6 -2,-1 -5,-2 -8,-2 -5,0 -10,3 -13,7 -3,5 -5,11 -5,19 0,3 1,7 1,10 1,3 3,5 4,8 2,2 4,4 6,5 3,1 5,2 8,2 2,0 5,-1 7,-2 3,-1 5,-3 7,-5l9 7c-5,8 -13,12 -24,12 -4,0 -8,-1 -12,-3 -3,-1 -6,-4 -9,-7 -3,-4 -5,-8 -6,-12 -2,-5 -2,-10 -2,-15 0,-6 0,-11 2,-15 1,-5 3,-9 6,-12 2,-3 5,-6 9,-8 4,-2 8,-3 12,-3 11,0 20,5 25,13l-10 7z"/>
    </clipPath>
   <clipPath id="id36" style="clip-rule:nonzero">
    <path d="M1779 950l21 0 -11 -36 -10 36zm18 -47l22 73 -12 0 -4 -13 -27 0 -4 13 -12 0 22 -73 15 0z"/>
   </clipPath>
    <clipPath id="id37">
     <path d="M1779 950l21 0 -11 -36 -10 36zm18 -47l22 73 -12 0 -4 -13 -27 0 -4 13 -12 0 22 -73 15 0z"/>
    </clipPath>
    <clipPath id="id38">
     <path d="M1779 950l21 0 -11 -36 -10 36zm18 -47l22 73 -12 0 -4 -13 -27 0 -4 13 -12 0 22 -73 15 0z"/>
    </clipPath>
   <clipPath id="id39" style="clip-rule:nonzero">
    <path d="M1858 976l-12 0 0 -62 -20 0 0 -11 51 0 0 11 -19 0 0 62z"/>
   </clipPath>
    <clipPath id="id40">
     <path d="M1858 976l-12 0 0 -62 -20 0 0 -11 51 0 0 11 -19 0 0 62z"/>
    </clipPath>
    <clipPath id="id41">
     <path d="M1858 976l-12 0 0 -62 -20 0 0 -11 51 0 0 11 -19 0 0 62z"/>
    </clipPath>
   <clipPath id="id42" style="clip-rule:nonzero">
    <path d="M1902 903l10 0 0 73 -10 0 0 -73z"/>
   </clipPath>
    <clipPath id="id43">
     <path d="M1902 903l10 0 0 73 -10 0 0 -73z"/>
    </clipPath>
    <clipPath id="id44">
     <path d="M1902 903l10 0 0 73 -10 0 0 -73z"/>
    </clipPath>
   <clipPath id="id45" style="clip-rule:nonzero">
    <path d="M1968 913c-5,0 -10,3 -13,7 -4,4 -5,11 -5,20 0,4 0,8 1,11 1,4 2,6 4,9 2,2 4,3 6,4 2,1 5,2 7,2 6,0 10,-2 14,-6 3,-5 5,-11 5,-20 0,-9 -2,-16 -5,-20 -3,-4 -8,-7 -14,-7zm0 64c-8,0 -15,-3 -21,-10 -5,-6 -8,-16 -8,-27 0,-12 3,-21 8,-28 6,-6 13,-10 21,-10 9,0 16,4 22,10 5,7 8,16 8,28 0,11 -3,20 -8,27 -6,7 -13,10 -22,10z"/>
   </clipPath>
    <clipPath id="id46">
     <path d="M1968 913c-5,0 -10,3 -13,7 -4,4 -5,11 -5,20 0,4 0,8 1,11 1,4 2,6 4,9 2,2 4,3 6,4 2,1 5,2 7,2 6,0 10,-2 14,-6 3,-5 5,-11 5,-20 0,-9 -2,-16 -5,-20 -3,-4 -8,-7 -14,-7zm0 64c-8,0 -15,-3 -21,-10 -5,-6 -8,-16 -8,-27 0,-12 3,-21 8,-28 6,-6 13,-10 21,-10 9,0 16,4 22,10 5,7 8,16 8,28 0,11 -3,20 -8,27 -6,7 -13,10 -22,10z"/>
    </clipPath>
    <clipPath id="id47">
     <path d="M1968 913c-5,0 -10,3 -13,7 -4,4 -5,11 -5,20 0,4 0,8 1,11 1,4 2,6 4,9 2,2 4,3 6,4 2,1 5,2 7,2 6,0 10,-2 14,-6 3,-5 5,-11 5,-20 0,-9 -2,-16 -5,-20 -3,-4 -8,-7 -14,-7zm0 64c-8,0 -15,-3 -21,-10 -5,-6 -8,-16 -8,-27 0,-12 3,-21 8,-28 6,-6 13,-10 21,-10 9,0 16,4 22,10 5,7 8,16 8,28 0,11 -3,20 -8,27 -6,7 -13,10 -22,10z"/>
    </clipPath>
   <clipPath id="id48" style="clip-rule:nonzero">
    <path d="M2034 922l0 54 -11 0 0 -73 14 0 27 52 0 -52 10 0 0 73 -12 0 -28 -54z"/>
   </clipPath>
    <clipPath id="id49">
     <path d="M2034 922l0 54 -11 0 0 -73 14 0 27 52 0 -52 10 0 0 73 -12 0 -28 -54z"/>
    </clipPath>
    <clipPath id="id50">
     <path d="M2034 922l0 54 -11 0 0 -73 14 0 27 52 0 -52 10 0 0 73 -12 0 -28 -54z"/>
    </clipPath>
   <clipPath id="id51" style="clip-rule:nonzero">
    <path d="M2122 977c-4,0 -8,-1 -11,-1 -4,-1 -7,-3 -11,-5l4 -11c2,2 5,3 8,4 3,1 6,2 10,2 4,0 7,-1 9,-3 2,-1 3,-4 3,-8 0,-2 -1,-5 -3,-6 -2,-2 -5,-4 -9,-6 -2,-1 -4,-2 -7,-3 -3,-1 -5,-3 -7,-4 -2,-2 -4,-4 -5,-6 -2,-2 -3,-5 -3,-9 0,-6 2,-10 7,-14 4,-3 9,-5 16,-5 4,0 7,1 11,1 3,1 6,3 8,4l-3 12c-2,-2 -4,-3 -7,-4 -2,-1 -5,-1 -9,-1 -3,0 -6,0 -8,1 -3,1 -4,3 -4,5 0,2 1,3 2,5 1,1 2,2 4,3 2,2 4,3 6,4 2,1 4,2 7,4 4,2 8,5 11,8 3,4 4,7 4,11 0,8 -2,14 -6,17 -4,3 -10,5 -17,5z"/>
   </clipPath>
    <clipPath id="id52">
     <path d="M2122 977c-4,0 -8,-1 -11,-1 -4,-1 -7,-3 -11,-5l4 -11c2,2 5,3 8,4 3,1 6,2 10,2 4,0 7,-1 9,-3 2,-1 3,-4 3,-8 0,-2 -1,-5 -3,-6 -2,-2 -5,-4 -9,-6 -2,-1 -4,-2 -7,-3 -3,-1 -5,-3 -7,-4 -2,-2 -4,-4 -5,-6 -2,-2 -3,-5 -3,-9 0,-6 2,-10 7,-14 4,-3 9,-5 16,-5 4,0 7,1 11,1 3,1 6,3 8,4l-3 12c-2,-2 -4,-3 -7,-4 -2,-1 -5,-1 -9,-1 -3,0 -6,0 -8,1 -3,1 -4,3 -4,5 0,2 1,3 2,5 1,1 2,2 4,3 2,2 4,3 6,4 2,1 4,2 7,4 4,2 8,5 11,8 3,4 4,7 4,11 0,8 -2,14 -6,17 -4,3 -10,5 -17,5z"/>
    </clipPath>
    <clipPath id="id53">
     <path d="M2122 977c-4,0 -8,-1 -11,-1 -4,-1 -7,-3 -11,-5l4 -11c2,2 5,3 8,4 3,1 6,2 10,2 4,0 7,-1 9,-3 2,-1 3,-4 3,-8 0,-2 -1,-5 -3,-6 -2,-2 -5,-4 -9,-6 -2,-1 -4,-2 -7,-3 -3,-1 -5,-3 -7,-4 -2,-2 -4,-4 -5,-6 -2,-2 -3,-5 -3,-9 0,-6 2,-10 7,-14 4,-3 9,-5 16,-5 4,0 7,1 11,1 3,1 6,3 8,4l-3 12c-2,-2 -4,-3 -7,-4 -2,-1 -5,-1 -9,-1 -3,0 -6,0 -8,1 -3,1 -4,3 -4,5 0,2 1,3 2,5 1,1 2,2 4,3 2,2 4,3 6,4 2,1 4,2 7,4 4,2 8,5 11,8 3,4 4,7 4,11 0,8 -2,14 -6,17 -4,3 -10,5 -17,5z"/>
    </clipPath>
   <clipPath id="id54" style="clip-rule:nonzero">
    <path d="M2202 903l11 0 0 73 -11 0 0 -73z"/>
   </clipPath>
    <clipPath id="id55">
     <path d="M2202 903l11 0 0 73 -11 0 0 -73z"/>
    </clipPath>
    <clipPath id="id56">
     <path d="M2202 903l11 0 0 73 -11 0 0 -73z"/>
    </clipPath>
   <clipPath id="id57" style="clip-rule:nonzero">
    <path d="M2251 922l0 54 -11 0 0 -73 14 0 26 52 0 -52 11 0 0 73 -12 0 -28 -54z"/>
   </clipPath>
    <clipPath id="id58">
     <path d="M2251 922l0 54 -11 0 0 -73 14 0 26 52 0 -52 11 0 0 73 -12 0 -28 -54z"/>
    </clipPath>
    <clipPath id="id59">
     <path d="M2251 922l0 54 -11 0 0 -73 14 0 26 52 0 -52 11 0 0 73 -12 0 -28 -54z"/>
    </clipPath>
   <clipPath id="id60" style="clip-rule:nonzero">
    <path d="M2361 922c-2,-3 -4,-5 -7,-6 -2,-1 -5,-2 -8,-2 -5,0 -10,3 -13,7 -3,5 -5,11 -5,19 0,3 1,7 2,10 1,3 2,5 3,8 2,2 4,4 6,5 3,1 5,2 8,2 2,0 5,-1 7,-2 3,-1 5,-3 7,-5l9 7c-5,8 -13,12 -24,12 -4,0 -8,-1 -12,-3 -3,-1 -6,-4 -9,-7 -3,-4 -5,-8 -6,-12 -2,-5 -2,-10 -2,-15 0,-6 0,-11 2,-15 1,-5 3,-9 6,-12 2,-3 5,-6 9,-8 4,-2 8,-3 12,-3 12,0 20,5 25,13l-10 7z"/>
   </clipPath>
    <clipPath id="id61">
     <path d="M2361 922c-2,-3 -4,-5 -7,-6 -2,-1 -5,-2 -8,-2 -5,0 -10,3 -13,7 -3,5 -5,11 -5,19 0,3 1,7 2,10 1,3 2,5 3,8 2,2 4,4 6,5 3,1 5,2 8,2 2,0 5,-1 7,-2 3,-1 5,-3 7,-5l9 7c-5,8 -13,12 -24,12 -4,0 -8,-1 -12,-3 -3,-1 -6,-4 -9,-7 -3,-4 -5,-8 -6,-12 -2,-5 -2,-10 -2,-15 0,-6 0,-11 2,-15 1,-5 3,-9 6,-12 2,-3 5,-6 9,-8 4,-2 8,-3 12,-3 12,0 20,5 25,13l-10 7z"/>
    </clipPath>
    <clipPath id="id62">
     <path d="M2361 922c-2,-3 -4,-5 -7,-6 -2,-1 -5,-2 -8,-2 -5,0 -10,3 -13,7 -3,5 -5,11 -5,19 0,3 1,7 2,10 1,3 2,5 3,8 2,2 4,4 6,5 3,1 5,2 8,2 2,0 5,-1 7,-2 3,-1 5,-3 7,-5l9 7c-5,8 -13,12 -24,12 -4,0 -8,-1 -12,-3 -3,-1 -6,-4 -9,-7 -3,-4 -5,-8 -6,-12 -2,-5 -2,-10 -2,-15 0,-6 0,-11 2,-15 1,-5 3,-9 6,-12 2,-3 5,-6 9,-8 4,-2 8,-3 12,-3 12,0 20,5 25,13l-10 7z"/>
    </clipPath>
   <clipPath id="id63" style="clip-rule:nonzero">
    <path d="M2396 976c-1,0 -3,0 -4,-2 -1,-1 -1,-3 -1,-5 0,-2 0,-4 1,-5 1,-2 3,-3 4,-3 2,0 3,1 4,3 2,1 2,3 2,5 0,2 0,4 -2,5 -1,2 -2,2 -4,2z"/>
   </clipPath>
    <clipPath id="id64">
     <path d="M2396 976c-1,0 -3,0 -4,-2 -1,-1 -1,-3 -1,-5 0,-2 0,-4 1,-5 1,-2 3,-3 4,-3 2,0 3,1 4,3 2,1 2,3 2,5 0,2 0,4 -2,5 -1,2 -2,2 -4,2z"/>
    </clipPath>
    <clipPath id="id65">
     <path d="M2396 976c-1,0 -3,0 -4,-2 -1,-1 -1,-3 -1,-5 0,-2 0,-4 1,-5 1,-2 3,-3 4,-3 2,0 3,1 4,3 2,1 2,3 2,5 0,2 0,4 -2,5 -1,2 -2,2 -4,2z"/>
    </clipPath>
   <clipPath id="id66" style="clip-rule:nonzero">
    <path d="M867 490l149 0c30,0 52,1 66,4 15,2 28,7 39,15 11,8 21,18 29,31 7,13 11,28 11,44 0,17 -5,33 -14,47 -9,15 -22,26 -38,33 22,7 40,18 52,34 12,16 18,35 18,56 0,17 -4,34 -12,50 -8,16 -18,28 -32,38 -14,10 -30,16 -50,18 -13,1 -43,2 -91,2l-127 0 0 -372zm76 62l0 86 49 0c29,0 47,-1 54,-2 13,-1 23,-5 31,-13 7,-7 11,-17 11,-29 0,-11 -4,-21 -10,-28 -6,-7 -16,-11 -28,-13 -8,-1 -29,-1 -64,-1l-43 0zm0 148l0 99 69 0c27,0 45,0 52,-2 11,-2 20,-7 27,-15 7,-8 11,-18 11,-31 0,-12 -3,-21 -8,-29 -6,-8 -14,-13 -24,-17 -10,-4 -32,-5 -67,-5l-60 0z"/>
   </clipPath>
    <clipPath id="id67">
     <path d="M867 490l149 0c30,0 52,1 66,4 15,2 28,7 39,15 11,8 21,18 29,31 7,13 11,28 11,44 0,17 -5,33 -14,47 -9,15 -22,26 -38,33 22,7 40,18 52,34 12,16 18,35 18,56 0,17 -4,34 -12,50 -8,16 -18,28 -32,38 -14,10 -30,16 -50,18 -13,1 -43,2 -91,2l-127 0 0 -372zm76 62l0 86 49 0c29,0 47,-1 54,-2 13,-1 23,-5 31,-13 7,-7 11,-17 11,-29 0,-11 -4,-21 -10,-28 -6,-7 -16,-11 -28,-13 -8,-1 -29,-1 -64,-1l-43 0zm0 148l0 99 69 0c27,0 45,0 52,-2 11,-2 20,-7 27,-15 7,-8 11,-18 11,-31 0,-12 -3,-21 -8,-29 -6,-8 -14,-13 -24,-17 -10,-4 -32,-5 -67,-5l-60 0z"/>
    </clipPath>
    <clipPath id="id68">
     <path d="M867 490l149 0c30,0 52,1 66,4 15,2 28,7 39,15 11,8 21,18 29,31 7,13 11,28 11,44 0,17 -5,33 -14,47 -9,15 -22,26 -38,33 22,7 40,18 52,34 12,16 18,35 18,56 0,17 -4,34 -12,50 -8,16 -18,28 -32,38 -14,10 -30,16 -50,18 -13,1 -43,2 -91,2l-127 0 0 -372zm76 62l0 86 49 0c29,0 47,-1 54,-2 13,-1 23,-5 31,-13 7,-7 11,-17 11,-29 0,-11 -4,-21 -10,-28 -6,-7 -16,-11 -28,-13 -8,-1 -29,-1 -64,-1l-43 0zm0 148l0 99 69 0c27,0 45,0 52,-2 11,-2 20,-7 27,-15 7,-8 11,-18 11,-31 0,-12 -3,-21 -8,-29 -6,-8 -14,-13 -24,-17 -10,-4 -32,-5 -67,-5l-60 0z"/>
    </clipPath>
   <clipPath id="id69" style="clip-rule:nonzero">
    <path d="M1303 678c0,-37 6,-69 17,-95 8,-19 20,-36 35,-51 14,-15 30,-27 48,-34 23,-10 50,-15 80,-15 55,0 99,17 132,52 33,34 49,81 49,142 0,60 -16,107 -49,141 -33,34 -76,51 -131,51 -55,0 -99,-17 -132,-51 -33,-34 -49,-80 -49,-140zm77 -2c0,42 10,74 30,96 19,22 44,33 74,33 30,0 55,-11 74,-33 19,-21 29,-54 29,-97 0,-43 -10,-75 -28,-96 -19,-21 -44,-31 -75,-31 -31,0 -56,10 -75,32 -19,21 -29,53 -29,96z"/>
   </clipPath>
    <clipPath id="id70">
     <path d="M1303 678c0,-37 6,-69 17,-95 8,-19 20,-36 35,-51 14,-15 30,-27 48,-34 23,-10 50,-15 80,-15 55,0 99,17 132,52 33,34 49,81 49,142 0,60 -16,107 -49,141 -33,34 -76,51 -131,51 -55,0 -99,-17 -132,-51 -33,-34 -49,-80 -49,-140zm77 -2c0,42 10,74 30,96 19,22 44,33 74,33 30,0 55,-11 74,-33 19,-21 29,-54 29,-97 0,-43 -10,-75 -28,-96 -19,-21 -44,-31 -75,-31 -31,0 -56,10 -75,32 -19,21 -29,53 -29,96z"/>
    </clipPath>
    <clipPath id="id71">
     <path d="M1303 678c0,-37 6,-69 17,-95 8,-19 20,-36 35,-51 14,-15 30,-27 48,-34 23,-10 50,-15 80,-15 55,0 99,17 132,52 33,34 49,81 49,142 0,60 -16,107 -49,141 -33,34 -76,51 -131,51 -55,0 -99,-17 -132,-51 -33,-34 -49,-80 -49,-140zm77 -2c0,42 10,74 30,96 19,22 44,33 74,33 30,0 55,-11 74,-33 19,-21 29,-54 29,-97 0,-43 -10,-75 -28,-96 -19,-21 -44,-31 -75,-31 -31,0 -56,10 -75,32 -19,21 -29,53 -29,96z"/>
    </clipPath>
   <clipPath id="id72" style="clip-rule:nonzero">
    <path d="M1801 862l0 -369 75 0 0 306 187 0 0 63 -262 0z"/>
   </clipPath>
    <clipPath id="id73">
     <path d="M1801 862l0 -369 75 0 0 306 187 0 0 63 -262 0z"/>
    </clipPath>
    <clipPath id="id74">
     <path d="M1801 862l0 -369 75 0 0 306 187 0 0 63 -262 0z"/>
    </clipPath>
   <clipPath id="id75" style="clip-rule:nonzero">
    <path d="M2237 862l0 -309 -110 0 0 -63 295 0 0 63 -109 0 0 309 -76 0z"/>
   </clipPath>
    <clipPath id="id76">
     <path d="M2237 862l0 -309 -110 0 0 -63 295 0 0 63 -109 0 0 309 -76 0z"/>
    </clipPath>
    <clipPath id="id77">
     <path d="M2237 862l0 -309 -110 0 0 -63 295 0 0 63 -109 0 0 309 -76 0z"/>
    </clipPath>
     <clipPath id="id78">
      <path d="M0 539l512 0c118,0 215,96 215,214l0 81c0,118 -97,215 -215,215l-512 0 0 -510z"/>
     </clipPath>
      <clipPath id="id79">
       <path d="M0 539l512 0c118,0 215,96 215,214l0 81c0,118 -97,215 -215,215l-512 0 0 -510z"/>
      </clipPath>
      <clipPath id="id80">
       <path d="M0 539l512 0c118,0 215,96 215,214l0 81c0,118 -97,215 -215,215l-512 0 0 -510z"/>
      </clipPath>
     <clipPath id="id81">
      <path d="M0 0l512 0c118,0 215,97 215,214l0 82c0,118 -97,214 -215,214l-512 0 0 -510z"/>
     </clipPath>
      <clipPath id="id82">
       <path d="M0 0l512 0c118,0 215,97 215,214l0 82c0,118 -97,214 -215,214l-512 0 0 -510z"/>
      </clipPath>
      <clipPath id="id83">
       <path d="M0 0l512 0c118,0 215,97 215,214l0 82c0,118 -97,214 -215,214l-512 0 0 -510z"/>
      </clipPath>
 </defs>
 <g id="Layer_x0020_1">
  <metadata id="CorelCorpID_0Corel-Layer"/>
  <path class="fil0" d="M919 976l-12 0 0 -62 -20 0 0 -11 51 0 0 11 -19 0 0 62zm43 -73l39 0 0 11 -28 0 0 19 18 0 0 11 -18 0 0 21 28 0 0 11 -39 0 0 -73zm66 0l11 0 0 62 31 0 0 11 -42 0 0 -73zm65 0l39 0 0 11 -28 0 0 19 17 0 0 11 -17 0 0 21 28 0 0 11 -39 0 0 -73zm109 19c-2,-3 -5,-5 -7,-6 -2,-1 -5,-2 -8,-2 -6,0 -10,3 -13,7 -3,5 -5,11 -5,19 0,3 0,7 1,10 1,3 2,5 4,8 2,2 4,4 6,5 2,1 5,2 7,2 3,0 6,-1 8,-2 3,-1 5,-3 7,-5l9 7c-5,8 -13,12 -24,12 -4,0 -8,-1 -12,-3 -3,-1 -7,-4 -9,-7 -3,-4 -5,-8 -6,-12 -2,-5 -3,-10 -3,-15 0,-6 1,-11 2,-15 2,-5 4,-9 6,-12 3,-3 6,-6 10,-8 3,-2 7,-3 12,-3 11,0 19,5 25,13l-10 7zm64 -9c-6,0 -10,3 -14,7 -3,4 -5,11 -5,20 0,4 0,8 1,11 1,4 3,6 4,9 2,2 4,3 6,4 3,1 5,2 8,2 5,0 9,-2 13,-6 3,-5 5,-11 5,-20 0,-9 -1,-16 -5,-20 -3,-4 -8,-7 -13,-7zm0 64c-9,0 -16,-3 -21,-10 -6,-6 -9,-16 -9,-27 0,-12 3,-21 8,-28 6,-6 13,-10 22,-10 8,0 15,4 21,10 5,7 8,16 8,28 0,11 -3,20 -8,27 -6,7 -13,10 -21,10zm105 -54l-19 53 -20 -53 0 53 -11 0 0 -73 15 0 16 44 16 -44 14 0 0 73 -11 0 0 -53zm88 0l-19 53 -20 -53 0 53 -11 0 0 -73 15 0 16 44 16 -44 14 0 0 73 -11 0 0 -53zm63 54c-8,0 -14,-3 -18,-8 -5,-5 -7,-13 -7,-22l0 -44 11 0 0 46c0,6 1,11 4,13 2,2 6,4 11,4 4,0 7,-2 10,-4 2,-2 3,-7 3,-13l0 -46 11 0 0 43c0,10 -2,17 -6,23 -4,5 -11,8 -19,8zm62 -55l0 54 -11 0 0 -73 14 0 27 52 0 -52 11 0 0 73 -13 0 -28 -54zm67 -19l11 0 0 73 -11 0 0 -73zm82 19c-2,-3 -4,-5 -7,-6 -2,-1 -5,-2 -8,-2 -5,0 -10,3 -13,7 -3,5 -5,11 -5,19 0,3 1,7 1,10 1,3 3,5 4,8 2,2 4,4 6,5 3,1 5,2 8,2 2,0 5,-1 7,-2 3,-1 5,-3 7,-5l9 7c-5,8 -13,12 -24,12 -4,0 -8,-1 -12,-3 -3,-1 -6,-4 -9,-7 -3,-4 -5,-8 -6,-12 -2,-5 -2,-10 -2,-15 0,-6 0,-11 2,-15 1,-5 3,-9 6,-12 2,-3 5,-6 9,-8 4,-2 8,-3 12,-3 11,0 20,5 25,13l-10 7zm46 28l21 0 -11 -36 -10 36zm18 -47l22 73 -12 0 -4 -13 -27 0 -4 13 -12 0 22 -73 15 0zm61 73l-12 0 0 -62 -20 0 0 -11 51 0 0 11 -19 0 0 62zm44 -73l10 0 0 73 -10 0 0 -73zm66 10c-5,0 -10,3 -13,7 -4,4 -5,11 -5,20 0,4 0,8 1,11 1,4 2,6 4,9 2,2 4,3 6,4 2,1 5,2 7,2 6,0 10,-2 14,-6 3,-5 5,-11 5,-20 0,-9 -2,-16 -5,-20 -3,-4 -8,-7 -14,-7zm0 64c-8,0 -15,-3 -21,-10 -5,-6 -8,-16 -8,-27 0,-12 3,-21 8,-28 6,-6 13,-10 21,-10 9,0 16,4 22,10 5,7 8,16 8,28 0,11 -3,20 -8,27 -6,7 -13,10 -22,10zm66 -55l0 54 -11 0 0 -73 14 0 27 52 0 -52 10 0 0 73 -12 0 -28 -54zm88 55c-4,0 -8,-1 -11,-1 -4,-1 -7,-3 -11,-5l4 -11c2,2 5,3 8,4 3,1 6,2 10,2 4,0 7,-1 9,-3 2,-1 3,-4 3,-8 0,-2 -1,-5 -3,-6 -2,-2 -5,-4 -9,-6 -2,-1 -4,-2 -7,-3 -3,-1 -5,-3 -7,-4 -2,-2 -4,-4 -5,-6 -2,-2 -3,-5 -3,-9 0,-6 2,-10 7,-14 4,-3 9,-5 16,-5 4,0 7,1 11,1 3,1 6,3 8,4l-3 12c-2,-2 -4,-3 -7,-4 -2,-1 -5,-1 -9,-1 -3,0 -6,0 -8,1 -3,1 -4,3 -4,5 0,2 1,3 2,5 1,1 2,2 4,3 2,2 4,3 6,4 2,1 4,2 7,4 4,2 8,5 11,8 3,4 4,7 4,11 0,8 -2,14 -6,17 -4,3 -10,5 -17,5zm80 -74l11 0 0 73 -11 0 0 -73zm49 19l0 54 -11 0 0 -73 14 0 26 52 0 -52 11 0 0 73 -12 0 -28 -54zm110 0c-2,-3 -4,-5 -7,-6 -2,-1 -5,-2 -8,-2 -5,0 -10,3 -13,7 -3,5 -5,11 -5,19 0,3 1,7 2,10 1,3 2,5 3,8 2,2 4,4 6,5 3,1 5,2 8,2 2,0 5,-1 7,-2 3,-1 5,-3 7,-5l9 7c-5,8 -13,12 -24,12 -4,0 -8,-1 -12,-3 -3,-1 -6,-4 -9,-7 -3,-4 -5,-8 -6,-12 -2,-5 -2,-10 -2,-15 0,-6 0,-11 2,-15 1,-5 3,-9 6,-12 2,-3 5,-6 9,-8 4,-2 8,-3 12,-3 12,0 20,5 25,13l-10 7zm35 54c-1,0 -3,0 -4,-2 -1,-1 -1,-3 -1,-5 0,-2 0,-4 1,-5 1,-2 3,-3 4,-3 2,0 3,1 4,3 2,1 2,3 2,5 0,2 0,4 -2,5 -1,2 -2,2 -4,2z"/>
  <g style="clip-path:url(#id0)">
   <g id="_2786986700960">
   </g>
   <g style="clip-path:url(#id1)">
    <image transform="matrix(-0.543978 -0 -0 0.12256 2472.27 408.63)" x="0" y="0" width="3811" height="5795" xlink:href="BOLT Telecommunications Inc_Images\BOLT Telecommunications Inc_ImgID1.png"/>
   </g>
   <g style="clip-path:url(#id2)">
   </g>
  </g>
  <g style="clip-path:url(#id3)">
   <g id="_2786986700960">
   </g>
   <g style="clip-path:url(#id4)">
    <image transform="matrix(-0.543978 -0 -0 0.12256 2472.27 408.63)" x="0" y="0" width="3811" height="5795" xlink:href="BOLT Telecommunications Inc_Images\BOLT Telecommunications Inc_ImgID2.png"/>
   </g>
   <g style="clip-path:url(#id5)">
   </g>
  </g>
  <g style="clip-path:url(#id6)">
   <g id="_2786986700960">
   </g>
   <g style="clip-path:url(#id7)">
    <image transform="matrix(-0.543978 -0 -0 0.12256 2472.27 408.63)" x="0" y="0" width="3811" height="5795" xlink:href="BOLT Telecommunications Inc_Images\BOLT Telecommunications Inc_ImgID3.png"/>
   </g>
   <g style="clip-path:url(#id8)">
   </g>
  </g>
  <g style="clip-path:url(#id9)">
   <g id="_2786986700960">
   </g>
   <g style="clip-path:url(#id10)">
    <image transform="matrix(-0.543978 -0 -0 0.12256 2472.27 408.63)" x="0" y="0" width="3811" height="5795" xlink:href="BOLT Telecommunications Inc_Images\BOLT Telecommunications Inc_ImgID4.png"/>
   </g>
   <g style="clip-path:url(#id11)">
   </g>
  </g>
  <g style="clip-path:url(#id12)">
   <g id="_2786986700960">
   </g>
   <g style="clip-path:url(#id13)">
    <image transform="matrix(-0.543978 -0 -0 0.12256 2472.27 408.63)" x="0" y="0" width="3811" height="5795" xlink:href="BOLT Telecommunications Inc_Images\BOLT Telecommunications Inc_ImgID5.png"/>
   </g>
   <g style="clip-path:url(#id14)">
   </g>
  </g>
  <g style="clip-path:url(#id15)">
   <g id="_2786986700960">
   </g>
   <g style="clip-path:url(#id16)">
    <image transform="matrix(-0.543978 -0 -0 0.12256 2472.27 408.63)" x="0" y="0" width="3811" height="5795" xlink:href="BOLT Telecommunications Inc_Images\BOLT Telecommunications Inc_ImgID6.png"/>
   </g>
   <g style="clip-path:url(#id17)">
   </g>
  </g>
  <g style="clip-path:url(#id18)">
   <g id="_2786986700960">
   </g>
   <g style="clip-path:url(#id19)">
    <image transform="matrix(-0.543978 -0 -0 0.12256 2472.27 408.63)" x="0" y="0" width="3811" height="5795" xlink:href="BOLT Telecommunications Inc_Images\BOLT Telecommunications Inc_ImgID7.png"/>
   </g>
   <g style="clip-path:url(#id20)">
   </g>
  </g>
  <g style="clip-path:url(#id21)">
   <g id="_2786986700960">
   </g>
   <g style="clip-path:url(#id22)">
    <image transform="matrix(-0.543978 -0 -0 0.12256 2472.27 408.63)" x="0" y="0" width="3811" height="5795" xlink:href="BOLT Telecommunications Inc_Images\BOLT Telecommunications Inc_ImgID8.png"/>
   </g>
   <g style="clip-path:url(#id23)">
   </g>
  </g>
  <g style="clip-path:url(#id24)">
   <g id="_2786986700960">
   </g>
   <g style="clip-path:url(#id25)">
    <image transform="matrix(-0.543978 -0 -0 0.12256 2472.27 408.63)" x="0" y="0" width="3811" height="5795" xlink:href="BOLT Telecommunications Inc_Images\BOLT Telecommunications Inc_ImgID9.png"/>
   </g>
   <g style="clip-path:url(#id26)">
   </g>
  </g>
  <g style="clip-path:url(#id27)">
   <g id="_2786986700960">
   </g>
   <g style="clip-path:url(#id28)">
    <image transform="matrix(-0.543978 -0 -0 0.12256 2472.27 408.63)" x="0" y="0" width="3811" height="5795" xlink:href="BOLT Telecommunications Inc_Images\BOLT Telecommunications Inc_ImgID10.png"/>
   </g>
   <g style="clip-path:url(#id29)">
   </g>
  </g>
  <g style="clip-path:url(#id30)">
   <g id="_2786986700960">
   </g>
   <g style="clip-path:url(#id31)">
    <image transform="matrix(-0.543978 -0 -0 0.12256 2472.27 408.63)" x="0" y="0" width="3811" height="5795" xlink:href="BOLT Telecommunications Inc_Images\BOLT Telecommunications Inc_ImgID11.png"/>
   </g>
   <g style="clip-path:url(#id32)">
   </g>
  </g>
  <g style="clip-path:url(#id33)">
   <g id="_2786986700960">
   </g>
   <g style="clip-path:url(#id34)">
    <image transform="matrix(-0.543978 -0 -0 0.12256 2472.27 408.63)" x="0" y="0" width="3811" height="5795" xlink:href="BOLT Telecommunications Inc_Images\BOLT Telecommunications Inc_ImgID12.png"/>
   </g>
   <g style="clip-path:url(#id35)">
   </g>
  </g>
  <g style="clip-path:url(#id36)">
   <g id="_2786986700960">
   </g>
   <g style="clip-path:url(#id37)">
    <image transform="matrix(-0.543978 -0 -0 0.12256 2472.27 408.63)" x="0" y="0" width="3811" height="5795" xlink:href="BOLT Telecommunications Inc_Images\BOLT Telecommunications Inc_ImgID13.png"/>
   </g>
   <g style="clip-path:url(#id38)">
   </g>
  </g>
  <g style="clip-path:url(#id39)">
   <g id="_2786986700960">
   </g>
   <g style="clip-path:url(#id40)">
    <image transform="matrix(-0.543978 -0 -0 0.12256 2472.27 408.63)" x="0" y="0" width="3811" height="5795" xlink:href="BOLT Telecommunications Inc_Images\BOLT Telecommunications Inc_ImgID14.png"/>
   </g>
   <g style="clip-path:url(#id41)">
   </g>
  </g>
  <g style="clip-path:url(#id42)">
   <g id="_2786986700960">
   </g>
   <g style="clip-path:url(#id43)">
    <image transform="matrix(-0.543978 -0 -0 0.12256 2472.27 408.63)" x="0" y="0" width="3811" height="5795" xlink:href="BOLT Telecommunications Inc_Images\BOLT Telecommunications Inc_ImgID15.png"/>
   </g>
   <g style="clip-path:url(#id44)">
   </g>
  </g>
  <g style="clip-path:url(#id45)">
   <g id="_2786986700960">
   </g>
   <g style="clip-path:url(#id46)">
    <image transform="matrix(-0.543978 -0 -0 0.12256 2472.27 408.63)" x="0" y="0" width="3811" height="5795" xlink:href="BOLT Telecommunications Inc_Images\BOLT Telecommunications Inc_ImgID16.png"/>
   </g>
   <g style="clip-path:url(#id47)">
   </g>
  </g>
  <g style="clip-path:url(#id48)">
   <g id="_2786986700960">
   </g>
   <g style="clip-path:url(#id49)">
    <image transform="matrix(-0.543978 -0 -0 0.12256 2472.27 408.63)" x="0" y="0" width="3811" height="5795" xlink:href="BOLT Telecommunications Inc_Images\BOLT Telecommunications Inc_ImgID17.png"/>
   </g>
   <g style="clip-path:url(#id50)">
   </g>
  </g>
  <g style="clip-path:url(#id51)">
   <g id="_2786986700960">
   </g>
   <g style="clip-path:url(#id52)">
    <image transform="matrix(-0.543978 -0 -0 0.12256 2472.27 408.63)" x="0" y="0" width="3811" height="5795" xlink:href="BOLT Telecommunications Inc_Images\BOLT Telecommunications Inc_ImgID18.png"/>
   </g>
   <g style="clip-path:url(#id53)">
   </g>
  </g>
  <g style="clip-path:url(#id54)">
   <g id="_2786986700960">
   </g>
   <g style="clip-path:url(#id55)">
    <image transform="matrix(-0.543978 -0 -0 0.12256 2472.27 408.63)" x="0" y="0" width="3811" height="5795" xlink:href="BOLT Telecommunications Inc_Images\BOLT Telecommunications Inc_ImgID19.png"/>
   </g>
   <g style="clip-path:url(#id56)">
   </g>
  </g>
  <g style="clip-path:url(#id57)">
   <g id="_2786986700960">
   </g>
   <g style="clip-path:url(#id58)">
    <image transform="matrix(-0.543978 -0 -0 0.12256 2472.27 408.63)" x="0" y="0" width="3811" height="5795" xlink:href="BOLT Telecommunications Inc_Images\BOLT Telecommunications Inc_ImgID20.png"/>
   </g>
   <g style="clip-path:url(#id59)">
   </g>
  </g>
  <g style="clip-path:url(#id60)">
   <g id="_2786986700960">
   </g>
   <g style="clip-path:url(#id61)">
    <image transform="matrix(-0.543978 -0 -0 0.12256 2472.27 408.63)" x="0" y="0" width="3811" height="5795" xlink:href="BOLT Telecommunications Inc_Images\BOLT Telecommunications Inc_ImgID21.png"/>
   </g>
   <g style="clip-path:url(#id62)">
   </g>
  </g>
  <g style="clip-path:url(#id63)">
   <g id="_2786986700960">
   </g>
   <g style="clip-path:url(#id64)">
    <image transform="matrix(-0.543978 -0 -0 0.12256 2472.27 408.63)" x="0" y="0" width="3811" height="5795" xlink:href="BOLT Telecommunications Inc_Images\BOLT Telecommunications Inc_ImgID22.png"/>
   </g>
   <g style="clip-path:url(#id65)">
   </g>
  </g>
  <path class="fil0" d="M867 490l149 0c30,0 52,1 66,4 15,2 28,7 39,15 11,8 21,18 29,31 7,13 11,28 11,44 0,17 -5,33 -14,47 -9,15 -22,26 -38,33 22,7 40,18 52,34 12,16 18,35 18,56 0,17 -4,34 -12,50 -8,16 -18,28 -32,38 -14,10 -30,16 -50,18 -13,1 -43,2 -91,2l-127 0 0 -372zm76 62l0 86 49 0c29,0 47,-1 54,-2 13,-1 23,-5 31,-13 7,-7 11,-17 11,-29 0,-11 -4,-21 -10,-28 -6,-7 -16,-11 -28,-13 -8,-1 -29,-1 -64,-1l-43 0zm0 148l0 99 69 0c27,0 45,0 52,-2 11,-2 20,-7 27,-15 7,-8 11,-18 11,-31 0,-12 -3,-21 -8,-29 -6,-8 -14,-13 -24,-17 -10,-4 -32,-5 -67,-5l-60 0zm360 -22c0,-37 6,-69 17,-95 8,-19 20,-36 35,-51 14,-15 30,-27 48,-34 23,-10 50,-15 80,-15 55,0 99,17 132,52 33,34 49,81 49,142 0,60 -16,107 -49,141 -33,34 -76,51 -131,51 -55,0 -99,-17 -132,-51 -33,-34 -49,-80 -49,-140zm77 -2c0,42 10,74 30,96 19,22 44,33 74,33 30,0 55,-11 74,-33 19,-21 29,-54 29,-97 0,-43 -10,-75 -28,-96 -19,-21 -44,-31 -75,-31 -31,0 -56,10 -75,32 -19,21 -29,53 -29,96zm421 186l0 -369 75 0 0 306 187 0 0 63 -262 0zm436 0l0 -309 -110 0 0 -63 295 0 0 63 -109 0 0 309 -76 0z"/>
  <g style="clip-path:url(#id66)">
   <g id="_2786986702368">
   </g>
   <g style="clip-path:url(#id67)">
    <image transform="matrix(-0.563716 -0 -0 0.127007 2494.41 390.723)" x="0" y="0" width="3811" height="5795" xlink:href="BOLT Telecommunications Inc_Images\BOLT Telecommunications Inc_ImgID23.png"/>
   </g>
   <g style="clip-path:url(#id68)">
   </g>
  </g>
  <g style="clip-path:url(#id69)">
   <g id="_2786986702368">
   </g>
   <g style="clip-path:url(#id70)">
    <image transform="matrix(-0.563716 -0 -0 0.127007 2494.41 390.723)" x="0" y="0" width="3811" height="5795" xlink:href="BOLT Telecommunications Inc_Images\BOLT Telecommunications Inc_ImgID24.png"/>
   </g>
   <g style="clip-path:url(#id71)">
   </g>
  </g>
  <g style="clip-path:url(#id72)">
   <g id="_2786986702368">
   </g>
   <g style="clip-path:url(#id73)">
    <image transform="matrix(-0.563716 -0 -0 0.127007 2494.41 390.723)" x="0" y="0" width="3811" height="5795" xlink:href="BOLT Telecommunications Inc_Images\BOLT Telecommunications Inc_ImgID25.png"/>
   </g>
   <g style="clip-path:url(#id74)">
   </g>
  </g>
  <g style="clip-path:url(#id75)">
   <g id="_2786986702368">
   </g>
   <g style="clip-path:url(#id76)">
    <image transform="matrix(-0.563716 -0 -0 0.127007 2494.41 390.723)" x="0" y="0" width="3811" height="5795" xlink:href="BOLT Telecommunications Inc_Images\BOLT Telecommunications Inc_ImgID26.png"/>
   </g>
   <g style="clip-path:url(#id77)">
   </g>
  </g>
  <path class="fil1 str0" d="M867 490l149 0c30,0 52,1 66,4 15,2 28,7 39,15 11,8 21,18 29,31 7,13 11,28 11,44 0,17 -5,33 -14,47 -9,15 -22,26 -38,33 22,7 40,18 52,34 12,16 18,35 18,56 0,17 -4,34 -12,50 -8,16 -18,28 -32,38 -14,10 -30,16 -50,18 -13,1 -43,2 -91,2l-127 0 0 -372zm76 62l0 86 49 0c29,0 47,-1 54,-2 13,-1 23,-5 31,-13 7,-7 11,-17 11,-29 0,-11 -4,-21 -10,-28 -6,-7 -16,-11 -28,-13 -8,-1 -29,-1 -64,-1l-43 0zm0 148l0 99 69 0c27,0 45,0 52,-2 11,-2 20,-7 27,-15 7,-8 11,-18 11,-31 0,-12 -3,-21 -8,-29 -6,-8 -14,-13 -24,-17 -10,-4 -32,-5 -67,-5l-60 0zm360 -22c0,-37 6,-69 17,-95 8,-19 20,-36 35,-51 14,-15 30,-27 48,-34 23,-10 50,-15 80,-15 55,0 99,17 132,52 33,34 49,81 49,142 0,60 -16,107 -49,141 -33,34 -76,51 -131,51 -55,0 -99,-17 -132,-51 -33,-34 -49,-80 -49,-140zm77 -2c0,42 10,74 30,96 19,22 44,33 74,33 30,0 55,-11 74,-33 19,-21 29,-54 29,-97 0,-43 -10,-75 -28,-96 -19,-21 -44,-31 -75,-31 -31,0 -56,10 -75,32 -19,21 -29,53 -29,96zm421 186l0 -369 75 0 0 306 187 0 0 63 -262 0zm436 0l0 -309 -110 0 0 -63 295 0 0 63 -109 0 0 309 -76 0z"/>
  <g id="_2786986701280">
   <g>
    <path class="fil2" d="M0 539l512 0c118,0 215,96 215,214l0 81c0,118 -97,215 -215,215l-512 0 0 -510z"/>
    <g style="clip-path:url(#id78)">
     <g>
     </g>
     <g style="clip-path:url(#id79)">
      <image transform="matrix(-0.248436 -0 -0 0.214584 737.937 -29.8273)" x="0" y="0" width="8700" height="5795" xlink:href="BOLT Telecommunications Inc_Images\BOLT Telecommunications Inc_ImgID27.png"/>
     </g>
     <g style="clip-path:url(#id80)">
     </g>
    </g>
    <path class="fil3" d="M0 539l512 0c118,0 215,96 215,214l0 81c0,118 -97,215 -215,215l-512 0 0 -510z"/>
    <path class="fil2" d="M0 0l512 0c118,0 215,97 215,214l0 82c0,118 -97,214 -215,214l-512 0 0 -510z"/>
    <g style="clip-path:url(#id81)">
     <g>
     </g>
     <g style="clip-path:url(#id82)">
      <image transform="matrix(-0.248436 -0 -0 0.214584 737.937 -29.8273)" x="0" y="0" width="8700" height="5795" xlink:href="BOLT Telecommunications Inc_Images\BOLT Telecommunications Inc_ImgID28.png"/>
     </g>
     <g style="clip-path:url(#id83)">
     </g>
    </g>
    <path class="fil3" d="M0 0l512 0c118,0 215,97 215,214l0 82c0,118 -97,214 -215,214l-512 0 0 -510z"/>
   </g>
   <path class="fil3 str1" d="M92 60l427 5c52,12 50,12 81,33 83,54 81,237 20,298 -46,45 -101,55 -101,55l-426 0"/>
   <path class="fil3 str1" d="M228 134l262 1c32,8 31,8 51,21 52,34 51,149 12,186 -29,29 -63,35 -63,35l-261 0"/>
   <path class="fil4" d="M203 89c22,0 40,18 40,40 0,23 -18,41 -40,41 -22,0 -40,-18 -40,-41 0,-22 18,-40 40,-40zm0 15c14,0 26,11 26,25 0,15 -12,26 -26,26 -14,0 -25,-11 -25,-26 0,-14 11,-25 25,-25z"/>
   <path class="fil4" d="M203 334c22,0 40,18 40,40 0,23 -18,41 -40,41 -22,0 -40,-18 -40,-41 0,-22 18,-40 40,-40zm0 15c14,0 26,11 26,25 0,15 -12,26 -26,26 -14,0 -25,-11 -25,-26 0,-14 11,-25 25,-25z"/>
   <path class="fil4" d="M66 15c23,0 41,18 41,41 0,22 -18,40 -41,40 -22,0 -40,-18 -40,-40 0,-23 18,-41 40,-41zm0 15c15,0 26,11 26,26 0,14 -11,25 -26,25 -14,0 -25,-11 -25,-25 0,-15 11,-26 25,-26z"/>
   <path class="fil3 str1" d="M229 667l261 2c32,8 31,8 51,21 52,34 51,149 12,186 -29,29 -63,35 -63,35l-261 0"/>
   <path class="fil3 str1" d="M84 595l435 4c52,12 50,12 81,33 83,54 81,237 20,298 -46,45 -101,55 -101,55l-426 0"/>
   <path class="fil4" d="M203 623c22,0 40,18 40,40 0,23 -18,41 -40,41 -22,0 -40,-18 -40,-41 0,-22 18,-40 40,-40zm0 15c14,0 26,11 26,25 0,15 -12,26 -26,26 -14,0 -25,-11 -25,-26 0,-14 11,-25 25,-25z"/>
   <path class="fil4" d="M203 868c22,0 40,18 40,40 0,23 -18,41 -40,41 -22,0 -40,-18 -40,-41 0,-22 18,-40 40,-40zm0 15c14,0 26,11 26,25 0,14 -12,26 -26,26 -14,0 -25,-12 -25,-26 0,-14 11,-25 25,-25z"/>
   <path class="fil4" d="M66 944c23,0 41,18 41,41 0,22 -18,40 -41,40 -22,0 -40,-18 -40,-40 0,-23 18,-41 40,-41zm0 15c15,0 26,11 26,26 0,14 -11,25 -26,25 -14,0 -25,-11 -25,-25 0,-15 11,-26 25,-26z"/>
  </g>
 </g>
</svg>
